<?xml version="1.0" encoding="utf-8"?>
<!-- Generator: Adobe Illustrator 16.0.0, SVG Export Plug-In . SVG Version: 6.00 Build 0)  -->
<!DOCTYPE svg PUBLIC "-//W3C//DTD SVG 1.1//EN" "http://www.w3.org/Graphics/SVG/1.1/DTD/svg11.dtd">
<svg version="1.1" xmlns="http://www.w3.org/2000/svg" xmlns:xlink="http://www.w3.org/1999/xlink" x="0px" y="0px" width="1728px"
	 height="1221.942px" viewBox="0 0 1728 1221.942" enable-background="new 0 0 1728 1221.942" xml:space="preserve">
<g id="Guides_For_Artboard">
</g>
<g id="Layer_1">
	<path fill="#6CBD48" d="M888.624,1014.274c240.404,0,436.339-195.914,436.339-436.329c0-240.152-195.935-436.338-436.339-436.338
		c-240.145,0-436.344,196.187-436.344,436.338C452.28,818.36,648.479,1014.274,888.624,1014.274L888.624,1014.274z"/>
	<g>
		<g>
			<path fill="#125B2F" d="M751.406,448.606c12.016-6.523,21.912-9.799,29.701-9.799c10.979,0,20,3.072,27.026,9.203
				c7.044,6.108,10.576,13.927,10.576,23.421c0,5.719-1.374,11.957-4.128,18.71l-18.017,44.99h19.728
				c14.419,0,21.646,5.087,21.646,15.278c0,6.983-2.567,12.42-7.642,16.309c-5.093,3.898-12.223,5.829-21.387,5.829h-34.503
				c-7.316,0-13.467-2.09-18.451-6.264c-4.977-4.17-7.459-9.3-7.459-15.355c0-4.125,1.296-9.378,3.928-15.797l15.8-38.807
				c1.944-4.922,2.916-8.635,2.916-11.157c0-6.52-4.343-9.792-13.045-9.792c-11.66,0-21.518,9.97-29.527,29.876l-19.222,47.222
				c-6.06,15-15.055,22.485-26.967,22.485c-4.68,0-8.697-1.484-12.003-4.479c-3.324-2.958-4.989-6.568-4.989-10.807
				c0-3.208,0.854-6.963,2.579-11.322l1.879-4.644l74.697-184.213c6.514-15.797,15.438-23.681,26.772-23.681
				c4.68,0,8.729,1.571,12.12,4.718c3.362,3.14,5.048,6.954,5.048,11.416c0,3.655-1.491,9.093-4.46,16.309L751.406,448.606z"/>
			<path fill="#125B2F" d="M947.652,535.131h18.885c14.42,0,21.619,5.022,21.619,15.106c0,6.974-2.567,12.44-7.718,16.393
				c-5.14,3.953-12.256,5.917-21.296,5.917h-21.971c-9.838,0-16.533-3.83-20.09-11.497c-8.574,7.667-16.87,11.497-24.893,11.497
				h-19.572c-12.586,0-22.735-4.485-30.467-13.477c-7.73-8.979-11.594-20.745-11.594-35.281c0-21.977,7.582-41.623,22.748-58.972
				c15.178-17.32,32.313-26.011,51.418-26.011c14.659,0,25.353,5.104,32.112,15.279c5.71-8.577,13.201-12.864,22.488-12.864
				c5.035,0,9.255,1.61,12.624,4.805c3.377,3.208,5.049,7.162,5.049,11.85c0,3.201-0.907,7.035-2.729,11.494l-1.893,4.637
				L947.652,535.131z M885.319,535.983h4.303c9.371,0,15.618-3.833,18.704-11.49l12.047-29.718c1.595-3.885,2.379-7.152,2.379-9.776
				c0-3.091-1.517-5.787-4.549-8.081c-3.021-2.272-6.669-3.429-10.908-3.429c-8.353,0-16.454,4.877-24.374,14.588
				c-7.894,9.741-11.854,19.818-11.854,30.229C871.067,530.092,875.817,535.983,885.319,535.983z"/>
			<path fill="#125B2F" d="M1060.093,438.807c16.597,0,30.259,5.269,40.958,15.797c10.707,10.538,16.048,23.921,16.048,40.171
				c0,12.255-2.808,24.407-8.394,36.487c-5.619,12.074-12.896,21.724-21.814,28.934c-5.954,4.695-12.112,7.923-18.45,9.695
				c-6.372,1.779-15.257,2.657-26.714,2.657c-18.645,0-31.225-2.22-37.758-6.691c-15.359-10.521-23.012-26.091-23.012-46.707
				c0-21.733,7.835-40.557,23.524-56.477C1020.158,446.772,1038.693,438.807,1060.093,438.807z M1055.984,475.375
				c-8.464,0-16.202,4.187-23.169,12.553c-6.993,8.344-10.467,17.56-10.467,27.619c0,13.285,7.42,19.921,22.313,19.921
				c8.697,0,15.379-2.687,20.084-8.069c7.771-8.813,11.678-18.888,11.678-30.21c0-6.533-1.892-11.792-5.677-15.8
				C1066.988,477.387,1062.051,475.375,1055.984,475.375z"/>
		</g>
	</g>
	<g>
		<path fill="#6CBD48" d="M1511.609,508.861c-12.243-23.26-39.857-28.59-39.857-28.59h-131.178l-0.078,28.59H1511.609z"/>
		<path fill="#6CBD48" d="M1558.744,555.785c-11.212-24.695-43.947-28.59-43.947-28.59h-174.319l0.025,28.59H1558.744z"/>
		<path fill="#6CBD48" d="M1609.073,601.789c-13.811-24.699-40.757-28.593-40.757-28.593h-227.839l0.039,28.593H1609.073z"/>
	</g>
	<g>
		<path fill="#6CBD48" d="M1511.609,709.661c-12.243,23.254-39.857,28.584-39.857,28.584h-131.178l-0.078-28.584H1511.609z"/>
		<path fill="#6CBD48" d="M1558.744,662.728c-11.212,24.705-43.947,28.594-43.947,28.594h-174.319l0.025-28.594H1558.744z"/>
		<path fill="#6CBD48" d="M1609.073,616.729c-13.811,24.702-40.757,28.588-40.757,28.588h-227.839l0.039-28.588H1609.073z"/>
	</g>
	<g>
		<path fill="#6CBD48" d="M263.941,508.861c12.242-23.26,39.856-28.59,39.856-28.59h131.171l0.085,28.59H263.941z"/>
		<path fill="#6CBD48" d="M216.807,555.785c11.219-24.695,43.946-28.59,43.946-28.59h174.319l-0.025,28.59H216.807z"/>
		<path fill="#6CBD48" d="M166.478,601.789c13.81-24.699,40.758-28.593,40.758-28.593h227.837l-0.038,28.593H166.478z"/>
	</g>
	<g>
		<path fill="#6CBD48" d="M263.941,709.661c12.242,23.254,39.856,28.584,39.856,28.584h131.171l0.085-28.584H263.941z"/>
		<path fill="#6CBD48" d="M216.807,662.728c11.219,24.705,43.946,28.594,43.946,28.594h174.319l-0.025-28.594H216.807z"/>
		<path fill="#6CBD48" d="M166.478,616.729c13.81,24.702,40.758,28.588,40.758,28.588h227.837l-0.038-28.588H166.478z"/>
	</g>
	<g>
		<g>
			<path fill="#FFFFFF" d="M671.674,640.103h19.675c-0.596,8.529-3.603,15.123-8.994,19.809c-5.425,4.709-12.749,7.067-22.009,7.067
				c-10.344,0-18.496-3.046-24.439-9.118c-5.949-6.066-8.911-14.391-8.911-24.951c0-10.541,2.936-18.853,8.813-24.928
				c5.891-6.102,13.895-9.131,24.07-9.131c9.352,0,16.72,2.252,22.099,6.785c5.36,4.507,8.367,10.975,9.009,19.371h-19.882
				c-0.286-3.315-1.35-5.805-3.19-7.477c-1.854-1.701-4.445-2.537-7.764-2.537c-4.096,0-7.135,1.487-9.163,4.459
				c-2.048,2.979-3.046,7.459-3.046,13.457c0,5.875,1.057,10.324,3.228,13.348c2.17,3.023,5.353,4.51,9.532,4.51
				c3.228,0,5.769-0.92,7.661-2.75C670.248,646.166,671.344,643.524,671.674,640.103z"/>
			<path fill="#FFFFFF" d="M700.429,665.165v-64.662h21.146v64.662H700.429z"/>
			<path fill="#FFFFFF" d="M747.822,665.165V617.55h-18.6v-17.047h57.983v17.047h-18.605v47.615H747.822z"/>
			<path fill="#FFFFFF" d="M810.822,665.165v-23.918l-23.798-40.744h23.007l11.154,22.041l11.243-22.041h22.386l-23.247,40.744
				v23.918H810.822z"/>
			<path fill="#FFFFFF" d="M931.579,640.103h19.662c-0.59,8.529-3.589,15.123-9.002,19.809c-5.404,4.709-12.733,7.067-22.001,7.067
				c-10.343,0-18.49-3.046-24.439-9.118c-5.93-6.066-8.918-14.391-8.918-24.951c0-10.541,2.949-18.853,8.834-24.928
				c5.885-6.102,13.895-9.131,24.05-9.131c9.358,0,16.727,2.252,22.112,6.785c5.359,4.507,8.36,10.975,9.008,19.371h-19.889
				c-0.298-3.315-1.342-5.805-3.188-7.477c-1.848-1.701-4.446-2.537-7.777-2.537c-4.069,0-7.123,1.487-9.158,4.459
				c-2.034,2.979-3.046,7.459-3.046,13.457c0,5.875,1.069,10.324,3.24,13.348c2.172,3.023,5.348,4.51,9.527,4.51
				c3.228,0,5.781-0.92,7.667-2.75C930.147,646.166,931.242,643.524,931.579,640.103z"/>
			<path fill="#FFFFFF" d="M953.606,665.165l22.734-64.662h21.024l22.729,64.662h-20.576l-2.404-8.562h-20.597l-2.488,8.562H953.606
				z M980.302,643.046h13.046l-6.455-22.379L980.302,643.046z"/>
			<path fill="#FFFFFF" d="M1026.043,665.165v-64.662h26.5c5.709,0,9.863,0.145,12.463,0.439c2.611,0.289,4.849,0.795,6.707,1.469
				c3.285,1.23,5.808,3.133,7.537,5.742c1.749,2.611,2.604,5.758,2.604,9.478c0,2.92-0.634,5.467-1.931,7.664
				c-1.316,2.174-3.253,3.966-5.871,5.366c3.421,1.234,5.961,3.082,7.595,5.544c1.647,2.46,2.47,5.638,2.47,9.556
				c0,3.836-0.811,7.175-2.404,9.987c-1.582,2.835-3.928,5-6.947,6.522c-2.063,1.047-4.389,1.809-7.038,2.246
				c-2.632,0.434-6.993,0.648-13.065,0.648H1026.043z M1046.185,626.328h8.555c2.886,0,4.894-0.421,6.066-1.273
				c1.16-0.861,1.75-2.288,1.75-4.294c0-2.142-0.629-3.609-1.887-4.399c-1.263-0.791-4.166-1.189-8.748-1.189h-5.736V626.328z
				 M1046.185,650.062h9.618c3.182,0,5.456-0.465,6.811-1.403c1.336-0.937,2.01-2.456,2.01-4.603c0-2.135-0.7-3.658-2.067-4.574
				c-1.374-0.9-3.694-1.342-6.935-1.342h-9.437V650.062z"/>
			<path fill="#FFFFFF" d="M1091.123,645.025h20.193c0.551,2.349,1.563,4.019,3.026,5.036c1.472,1.033,3.656,1.543,6.56,1.543
				c2.417,0,4.335-0.429,5.717-1.248c1.393-0.85,2.08-1.993,2.08-3.451c0-2.334-2.904-4.238-8.736-5.704
				c-1.174-0.291-2.062-0.511-2.671-0.657c-4.783-1.234-8.574-2.35-11.399-3.354c-2.813-1.018-4.86-1.954-6.15-2.836
				c-2.495-1.781-4.374-3.928-5.605-6.416c-1.238-2.481-1.873-5.324-1.873-8.5c0-6.419,2.437-11.444,7.238-15.094
				c4.842-3.67,11.492-5.494,19.93-5.494c8.32,0,14.859,1.746,19.642,5.246c4.765,3.499,7.435,8.512,8.07,15.019h-19.709
				c-0.317-1.892-1.166-3.309-2.515-4.251c-1.381-0.934-3.313-1.406-5.833-1.406c-2.216,0-3.869,0.365-4.957,1.098
				c-1.096,0.732-1.621,1.848-1.621,3.341c0,2.123,2.839,3.915,8.517,5.354c0.492,0.146,0.87,0.246,1.141,0.308
				c0.816,0.197,2.061,0.509,3.739,0.92c7.511,1.906,12.43,3.643,14.731,5.191c2.884,1.902,4.963,4.057,6.292,6.471
				c1.321,2.441,1.964,5.309,1.964,8.617c0,7.145-2.495,12.637-7.473,16.464c-5.01,3.823-12.145,5.758-21.457,5.758
				c-8.562,0-15.36-1.935-20.389-5.758C1094.544,657.394,1091.732,651.985,1091.123,645.025z"/>
		</g>
	</g>
	<g>
		<g>
			<path fill="#FFFFFF" d="M745.23,442.427c12.016-6.517,21.918-9.796,29.695-9.796c10.984,0,20.006,3.076,27.037,9.207
				c7.039,6.108,10.564,13.927,10.564,23.415c0,5.726-1.375,11.963-4.122,18.713l-18.017,44.99h19.733
				c14.407,0,21.634,5.09,21.634,15.282c0,6.983-2.555,12.42-7.635,16.309c-5.088,3.895-12.223,5.83-21.38,5.83h-34.505
				c-7.322,0-13.479-2.093-18.449-6.267c-4.984-4.17-7.473-9.3-7.473-15.356c0-4.122,1.309-9.381,3.939-15.797l15.794-38.807
				c1.95-4.919,2.91-8.632,2.91-11.153c0-6.523-4.329-9.793-13.033-9.793c-11.672,0-21.516,9.964-29.526,29.873L703.177,546.3
				c-6.072,15-15.055,22.485-26.967,22.485c-4.686,0-8.71-1.484-12.009-4.478c-3.324-2.961-4.996-6.572-4.996-10.807
				c0-3.208,0.861-6.964,2.586-11.325l1.886-4.64l74.69-184.216c6.52-15.797,15.444-23.681,26.766-23.681
				c4.686,0,8.736,1.572,12.126,4.721c3.356,3.14,5.048,6.951,5.048,11.413c0,3.658-1.49,9.09-4.459,16.313L745.23,442.427z"/>
			<path fill="#FFFFFF" d="M941.469,528.955h18.886c14.425,0,21.632,5.022,21.632,15.104c0,6.98-2.572,12.443-7.719,16.396
				c-5.145,3.954-12.261,5.92-21.302,5.92h-21.964c-9.851,0-16.539-3.833-20.097-11.497c-8.58,7.664-16.876,11.497-24.899,11.497
				h-19.56c-12.585,0-22.74-4.488-30.472-13.48c-7.738-8.979-11.588-20.745-11.588-35.275c0-21.979,7.576-41.629,22.742-58.975
				c15.171-17.323,32.313-26.014,51.424-26.014c14.652,0,25.353,5.107,32.1,15.282c5.716-8.577,13.202-12.867,22.495-12.867
				c5.042,0,9.255,1.61,12.63,4.802c3.371,3.211,5.043,7.165,5.043,11.857c0,3.195-0.9,7.038-2.723,11.494l-1.904,4.634
				L941.469,528.955z M879.149,529.807h4.291c9.384,0,15.618-3.83,18.703-11.487l12.054-29.718c1.588-3.888,2.385-7.155,2.385-9.776
				c0-3.095-1.529-5.791-4.549-8.078c-3.021-2.275-6.669-3.432-10.914-3.432c-8.348,0-16.454,4.877-24.374,14.585
				c-7.887,9.741-11.854,19.818-11.854,30.23C864.891,523.916,869.648,529.807,879.149,529.807z"/>
			<path fill="#FFFFFF" d="M1053.923,432.63c16.598,0,30.253,5.272,40.945,15.797c10.707,10.538,16.054,23.924,16.054,40.174
				c0,12.255-2.801,24.4-8.394,36.487c-5.625,12.074-12.896,21.72-21.808,28.931c-5.963,4.695-12.112,7.929-18.464,9.695
				c-6.364,1.779-15.241,2.66-26.714,2.66c-18.639,0-31.225-2.219-37.756-6.691c-15.348-10.524-23-26.091-23-46.704
				c0-21.739,7.835-40.563,23.519-56.483C1013.982,440.596,1032.518,432.63,1053.923,432.63z M1049.814,469.202
				c-8.464,0-16.202,4.187-23.176,12.55c-6.986,8.344-10.473,17.56-10.473,27.618c0,13.289,7.433,19.925,22.32,19.925
				c8.69,0,15.385-2.686,20.077-8.068c7.783-8.814,11.678-18.892,11.678-30.211c0-6.539-1.886-11.792-5.67-15.803
				C1060.812,471.214,1055.881,469.202,1049.814,469.202z"/>
		</g>
	</g>
	<g>
		<path fill="#125B2F" d="M919.965,406.573l15.579-15.876l1.186-1.354c2.601-2.81,5.519-4.219,8.732-4.219
			c2.108,0,3.83,0.503,5.177,1.486c1.327,0.978,2.011,2.266,2.011,3.801c0,1.673-1.338,3.814-4.021,6.421l-24.844,24.052
			c-2.772,2.711-6.038,4.066-9.79,4.066c-3.178,0-5.698-0.817-7.538-2.5c-1.84-1.642-2.757-3.922-2.757-6.794
			c0-0.592,0.026-1.09,0.082-1.445l2.396-20.059c0.305-2.715,1.293-4.761,2.908-6.183c1.651-1.414,3.877-2.132,6.65-2.132
			c4.264,0,6.364,1.611,6.364,4.824c0,0.462-0.092,1.266-0.253,2.382L919.965,406.573z"/>
	</g>
	<g>
		<g>
			<path fill="#FFFFFF" d="M915.198,403.107l15.579-15.876l1.186-1.354c2.602-2.81,5.519-4.219,8.732-4.219
				c2.109,0,3.83,0.503,5.178,1.486c1.327,0.978,2.011,2.266,2.011,3.801c0,1.673-1.339,3.814-4.021,6.421l-24.843,24.052
				c-2.773,2.711-6.039,4.066-9.791,4.066c-3.179,0-5.698-0.817-7.539-2.5c-1.84-1.642-2.756-3.922-2.756-6.794
				c0-0.592,0.026-1.09,0.082-1.445l2.396-20.059c0.305-2.715,1.292-4.761,2.908-6.183c1.65-1.414,3.877-2.132,6.649-2.132
				c4.265,0,6.364,1.611,6.364,4.824c0,0.462-0.091,1.266-0.253,2.383L915.198,403.107z"/>
		</g>
	</g>
	<g>
		<g>
			<g>
				<path fill="#FFFFFF" d="M1224.873,357.159c-9.695-14.617-20.467-28.739-31.988-41.986l-35.172,30.596
					c10.183,11.737,19.721,24.229,28.302,37.181L1224.873,357.159z"/>
				<path fill="#FFFFFF" d="M1155.697,277.668c-13.143-11.655-27.188-22.543-41.75-32.368l-26.09,38.632
					c12.869,8.704,25.313,18.337,36.927,28.648L1155.697,277.668z"/>
				<path fill="#FFFFFF" d="M1291.055,608.153l-46.486-3.36l-0.07,0.784c-1.121,15.543-3.223,31.137-6.313,46.299l45.695,9.31
					c3.481-17.148,5.892-34.761,7.143-52.586L1291.055,608.153z"/>
				<path fill="#FFFFFF" d="M959.336,230.119l9.234-45.712c-16.966-3.412-34.373-5.771-51.735-7.009l-0.55-0.045l-3.274,46.522
					l0.519,0.036C928.929,225,944.321,227.089,959.336,230.119z"/>
				<path fill="#FFFFFF" d="M1244.781,558.125l46.526-2.822c-1.056-17.573-3.312-35.188-6.636-52.414l-45.768,8.898
					C1241.854,527.011,1243.823,542.603,1244.781,558.125z"/>
				<path fill="#FFFFFF" d="M1226.973,466.658l44.205-14.851c-5.579-16.623-12.319-33.065-20.038-48.839l-41.892,20.499
					C1216.06,437.417,1222.035,451.934,1226.973,466.658z"/>
				<path fill="#FFFFFF" d="M1068.304,218.651c-15.716-7.835-32.132-14.714-48.762-20.417l-15.125,44.105
					c14.691,5.039,29.195,11.118,43.104,18.045L1068.304,218.651z"/>
				<path fill="#FFFFFF" d="M568.454,420.755l-41.743-20.836c-7.842,15.749-14.73,32.142-20.439,48.755l44.095,15.162
					C555.422,449.167,561.5,434.675,568.454,420.755z"/>
				<path fill="#FFFFFF" d="M538.131,508.9l-45.715-9.232c-3.423,17.006-5.821,34.458-7.039,51.736l-0.039,0.651l46.552,2.826
					C532.979,539.428,535.078,523.955,538.131,508.9z"/>
				<path fill="#FFFFFF" d="M537.438,648.321c-2.943-15.224-4.901-30.807-5.833-46.332l-46.539,2.762
					c1.018,17.572,3.254,35.21,6.584,52.42L537.438,648.321z"/>
				<path fill="#FFFFFF" d="M774.771,241.376l-14.815-44.193c-16.656,5.564-33.078,12.311-48.84,20.019l20.461,41.895
					C745.555,252.277,760.078,246.328,774.771,241.376z"/>
				<path fill="#FFFFFF" d="M620.676,343.487l-34.911-30.933c-11.679,13.156-22.54,27.2-32.372,41.733l38.619,26.121
					C600.695,367.561,610.333,355.134,620.676,343.487z"/>
				<path fill="#FFFFFF" d="M866.271,223.642l-2.831-46.545c-17.519,1.053-35.152,3.286-52.371,6.621l8.853,45.783
					C835.15,226.538,850.75,224.575,866.271,223.642z"/>
				<path fill="#FFFFFF" d="M691.051,282.315l-25.755-38.875c-14.62,9.686-28.761,20.457-42.007,31.973l30.575,35.194
					C665.594,300.396,678.104,290.883,691.051,282.315z"/>
			</g>
			<g>
				<path fill="#FFFFFF" d="M1173.014,440.546l37.167-18.236c-6.856-13.992-14.757-27.65-23.376-40.631l-34.465,22.958
					C1159.975,416.104,1166.935,428.181,1173.014,440.546z"/>
				<path fill="#FFFFFF" d="M1199.41,518.968l40.629-7.949c-3.021-15.311-7.039-30.576-12.01-45.339l-39.242,13.201
					C1193.176,491.927,1196.766,505.413,1199.41,518.968z"/>
				<path fill="#FFFFFF" d="M1004.318,240.929c-14.788-5.059-30.012-9.196-45.326-12.261l-8.138,40.585
					c13.523,2.719,26.978,6.364,40.049,10.826L1004.318,240.929z"/>
				<path fill="#FFFFFF" d="M1127.169,371.701l31.173-27.238c-10.246-11.747-21.4-22.906-33.085-33.23l-27.381,31.076
					C1108.245,351.426,1118.103,361.313,1127.169,371.701z"/>
				<path fill="#FFFFFF" d="M587.488,681.269c-4.381-13.078-7.933-26.548-10.563-40.09l-40.642,7.885
					c2.826,14.416,6.564,28.781,11.135,42.715h8.639L587.488,681.269z"/>
				<path fill="#FFFFFF" d="M1199.066,643.36c-2.734,13.516-6.377,26.963-10.9,40.019l24.419,8.399h16.384
					c4.322-13.153,7.932-26.649,10.675-40.214L1199.066,643.36z"/>
				<path fill="#FFFFFF" d="M1204.744,560.762c0.375,6.594,0.596,13.25,0.596,19.78c0,7.219-0.239,14.542-0.739,21.723l41.303,2.823
					c0.538-8.134,0.843-16.394,0.843-24.546c0-7.362-0.226-14.877-0.699-22.356l-0.041-0.703l-41.287,2.641L1204.744,560.762z"/>
				<path fill="#FFFFFF" d="M1088.148,282.594c-12.942-8.691-26.584-16.633-40.537-23.587l-18.445,37.08
					c12.34,6.131,24.42,13.163,35.878,20.869L1088.148,282.594z"/>
				<path fill="#FFFFFF" d="M588.098,477.364l-39.145-13.425c-5.067,14.75-9.189,29.996-12.281,45.297l40.576,8.153
					C579.958,503.874,583.639,490.413,588.098,477.364z"/>
				<path fill="#FFFFFF" d="M624.999,403.25l-34.335-23.124c-8.697,12.939-16.655,26.564-23.597,40.511l37.063,18.458
					C610.275,426.759,617.294,414.692,624.999,403.25z"/>
				<path fill="#FFFFFF" d="M551.015,601.293l20.661-1.183l-0.026-0.434c-0.408-6.566-0.616-13.234-0.616-19.777
					c0-7.103,0.253-14.306,0.727-21.403l-41.303-2.777c-0.545,8.007-0.81,16.153-0.81,24.18c0,7.388,0.228,14.906,0.707,22.458
					L551.015,601.293z"/>
				<path fill="#FFFFFF" d="M827.102,268.988l-7.925-40.615c-15.328,2.958-30.59,7.002-45.354,11.953l13.176,39.241
					C800.045,275.196,813.531,271.645,827.102,268.988z"/>
				<path fill="#FFFFFF" d="M909.751,263.777l2.787-41.302c-15.319-1.027-31.224-1.04-46.039-0.113l-0.907,0.032l3.136,41.299
					C882.403,262.844,896.233,262.87,909.751,263.777z"/>
				<path fill="#FFFFFF" d="M679.794,341.151l-27.239-31.189c-11.71,10.259-22.902,21.38-33.227,33.065l31.044,27.391
					C659.516,360.072,669.412,350.224,679.794,341.151z"/>
				<path fill="#FFFFFF" d="M748.639,295.341l-18.211-37.173c-13.966,6.857-27.646,14.705-40.628,23.354l22.936,34.455
					C724.207,308.349,736.299,301.398,748.639,295.341z"/>
			</g>
		</g>
		<g>
			<g>
				<path fill="#FFFFFF" d="M552.361,798.669c9.696,14.646,20.48,28.752,31.983,42.008l35.185-30.602
					c-10.2-11.747-19.74-24.232-28.3-37.161L552.361,798.669z"/>
				<path fill="#FFFFFF" d="M621.539,878.179c13.136,11.646,27.192,22.549,41.735,32.367l26.093-38.658
					c-12.858-8.684-25.303-18.309-36.941-28.619L621.539,878.179z"/>
				<path fill="#FFFFFF" d="M486.162,547.697l46.512,3.357l0.045-0.781c1.095-15.567,3.241-31.137,6.313-46.312l-45.684-9.297
					c-3.486,17.135-5.891,34.744-7.154,52.585L486.162,547.697z"/>
				<path fill="#FFFFFF" d="M817.881,925.741l-9.203,45.695c16.947,3.447,34.348,5.773,51.723,7.027l0.551,0.027l3.279-46.525
					l-0.558-0.053C848.301,930.841,832.915,928.761,817.881,925.741z"/>
				<path fill="#FFFFFF" d="M532.453,597.731l-46.538,2.816c1.069,17.553,3.298,35.19,6.656,52.4l45.754-8.872
					C535.397,628.837,533.412,613.247,532.453,597.731z"/>
				<path fill="#FFFFFF" d="M550.271,689.214l-44.207,14.829c5.573,16.649,12.313,33.042,20.058,48.836l41.866-20.489
					C561.162,718.427,555.207,703.917,550.271,689.214z"/>
				<path fill="#FFFFFF" d="M708.905,937.202c15.769,7.848,32.171,14.691,48.781,20.42l15.132-44.102
					c-14.685-5.045-29.17-11.127-43.084-18.059L708.905,937.202z"/>
				<path fill="#FFFFFF" d="M1208.788,735.075l41.735,20.833c7.855-15.726,14.719-32.132,20.441-48.735l-44.088-15.162
					C1221.82,706.684,1215.741,721.178,1208.788,735.075z"/>
				<path fill="#FFFFFF" d="M1239.104,646.946l45.703,9.236c3.448-17.01,5.832-34.459,7.038-51.736l0.046-0.672l-46.521-2.803
					C1244.271,616.423,1242.15,631.889,1239.104,646.946z"/>
				<path fill="#FFFFFF" d="M1239.791,507.532c2.963,15.221,4.914,30.8,5.828,46.334l46.557-2.78
					c-1.051-17.563-3.253-35.178-6.59-52.404L1239.791,507.532z"/>
				<path fill="#FFFFFF" d="M1002.439,914.47l14.814,44.223c16.65-5.617,33.072-12.344,48.872-20.025l-20.479-41.912
					C1031.693,903.579,1017.165,909.519,1002.439,914.47z"/>
				<path fill="#FFFFFF" d="M1156.565,812.337l34.914,30.961c11.645-13.158,22.545-27.219,32.37-41.765l-38.639-26.079
					C1176.526,788.306,1166.884,800.716,1156.565,812.337z"/>
				<path fill="#FFFFFF" d="M910.977,932.188l2.794,46.594c17.55-1.082,35.189-3.314,52.39-6.652l-8.858-45.783
					C942.071,929.296,926.484,931.272,910.977,932.188z"/>
				<path fill="#FFFFFF" d="M1086.165,873.534l25.768,38.885c14.634-9.721,28.775-20.463,42.028-31.953l-30.602-35.221
					C1111.647,855.431,1099.133,864.968,1086.165,873.534z"/>
			</g>
			<g>
				<path fill="#FFFFFF" d="M604.234,715.296l-37.167,18.248c6.871,13.972,14.724,27.627,23.363,40.623l34.458-22.954
					C617.229,739.755,610.275,727.64,604.234,715.296z"/>
				<path fill="#FFFFFF" d="M577.839,636.879l-40.622,7.945c2.988,15.337,7.02,30.596,11.996,45.34l39.228-13.204
					C584.054,663.901,580.482,650.44,577.839,636.879z"/>
				<path fill="#FFFFFF" d="M772.93,914.933c14.75,5.029,30.012,9.186,45.295,12.266l8.158-40.605
					c-13.5-2.715-26.992-6.361-40.038-10.855L772.93,914.933z"/>
				<path fill="#FFFFFF" d="M650.079,784.146L618.9,811.391c10.267,11.743,21.399,22.903,33.098,33.208l27.356-31.051
					C669.004,804.411,659.146,794.536,650.079,784.146z"/>
				<path fill="#FFFFFF" d="M1189.728,474.587c4.396,13.046,7.952,26.545,10.569,40.096l40.636-7.906
					c-2.787-14.419-6.553-28.775-11.108-42.725h-8.645L1189.728,474.587z"/>
				<path fill="#FFFFFF" d="M578.162,512.493c2.729-13.522,6.416-26.999,10.895-40.025l-24.411-8.416H548.26
					c-4.31,13.182-7.919,26.662-10.674,40.233L578.162,512.493z"/>
				<path fill="#FFFFFF" d="M572.492,595.084c-0.409-6.587-0.603-13.25-0.603-19.776c0-7.219,0.252-14.546,0.737-21.727
					l-41.287-2.819c-0.572,8.13-0.857,16.39-0.857,24.545c0,7.359,0.24,14.88,0.688,22.353l0.053,0.706l41.334-2.642
					L572.492,595.084z"/>
				<path fill="#FFFFFF" d="M689.094,873.253c12.961,8.723,26.564,16.619,40.544,23.6l18.405-37.09
					c-12.333-6.133-24.381-13.148-35.826-20.855L689.094,873.253z"/>
				<path fill="#FFFFFF" d="M1189.125,678.472l39.15,13.439c5.074-14.758,9.197-29.994,12.274-45.298l-40.55-8.186
					C1197.246,651.956,1193.584,665.427,1189.125,678.472z"/>
				<path fill="#FFFFFF" d="M1152.224,752.597l34.335,23.137c8.717-12.952,16.662-26.594,23.622-40.527l-37.096-18.448
					C1166.975,729.091,1159.93,741.161,1152.224,752.597z"/>
				<path fill="#FFFFFF" d="M1226.221,554.56l-20.666,1.176l0.045,0.421c0.375,6.581,0.57,13.237,0.57,19.796
					c0,7.103-0.221,14.306-0.707,21.386l41.315,2.783c0.519-8.017,0.816-16.141,0.816-24.169c0-7.392-0.233-14.906-0.726-22.463
					L1226.221,554.56z"/>
				<path fill="#FFFFFF" d="M950.14,886.849l7.913,40.635c15.327-2.951,30.576-7.008,45.34-11.953l-13.188-39.254
					C977.171,880.659,963.691,884.206,950.14,886.849z"/>
				<path fill="#FFFFFF" d="M867.471,892.054l-2.772,41.324c15.288,1.021,31.204,1.021,46.039,0.133l0.9-0.063l-3.144-41.285
					C894.814,893.003,881.004,892.958,867.471,892.054z"/>
				<path fill="#FFFFFF" d="M1097.437,814.692l27.218,31.16c11.756-10.234,22.936-21.332,33.246-33.047l-31.056-27.381
					C1117.714,795.771,1107.812,805.612,1097.437,814.692z"/>
				<path fill="#FFFFFF" d="M1028.583,860.509l18.218,37.182c13.979-6.846,27.641-14.717,40.621-23.369l-22.936-34.461
					C1053.028,847.497,1040.929,854.452,1028.583,860.509z"/>
			</g>
		</g>
	</g>
	<rect x="449.318" y="687.711" fill="#FFFFFF" width="869.339" height="293.091"/>
	<path fill="none" stroke="#000000" stroke-width="0.8666" stroke-miterlimit="10" d="M1602.488,556.41
		c-10.361-29.463-28.21-41.017-49.511-47.949c-31.271-58.048-75.508-62.99-83.612-63.405l-0.002-0.038h-1.154
		c-0.097-0.001-0.146,0-0.146,0h-130.616c0,0-5.5-19.181-18.826-48.282c-36.261-80.37-131.935-236.424-338.578-273.346
		c-0.464-0.083-0.931-0.164-1.395-0.246c-1.69-0.297-3.383-0.589-5.085-0.87c-1.277-0.211-2.563-0.414-3.847-0.617
		c-0.936-0.146-1.867-0.294-2.807-0.436c-1.965-0.298-3.943-0.583-5.93-0.859c-0.305-0.042-0.606-0.086-0.911-0.127
		c-19.697-2.704-40.347-4.326-61.983-4.717c-0.424-0.008-0.848-0.017-1.272-0.024c-1.918-0.03-3.845-0.049-5.778-0.06
		c-0.669-0.004-1.331-0.019-2.002-0.021c-0.495-0.002-0.983,0.006-1.479,0.006c-0.493,0-0.981-0.008-1.478-0.006
		c-0.671,0.002-1.332,0.016-2.002,0.021c-1.933,0.011-3.859,0.029-5.778,0.06c-0.425,0.007-0.848,0.016-1.272,0.024
		c-21.637,0.391-42.285,2.013-61.982,4.717c-0.305,0.042-0.607,0.085-0.912,0.127c-1.984,0.276-3.964,0.561-5.93,0.859
		c-0.938,0.142-1.871,0.29-2.805,0.436c-1.286,0.203-2.57,0.405-3.848,0.617c-1.702,0.281-3.396,0.573-5.085,0.87
		c-0.465,0.082-0.932,0.162-1.396,0.246c-206.641,36.921-302.316,192.976-338.578,273.346
		c-13.325,29.101-18.825,48.282-18.825,48.282H307.048c0,0-0.049-0.001-0.146,0h-1.156v0.038
		c-8.105,0.415-52.344,5.357-83.612,63.405c-21.302,6.933-39.148,18.486-49.512,47.949c-32.815,4.044-37.179,53.148-37.179,53.148
		s0,45.638,36.027,52.571c6.909,25.996,21.878,41.594,51.238,47.949c24,49.284,39.342,53.203,74.356,59.479l2.792,0.026
		l-0.521,199.884h348.045c0,0,1.516,1.705,4.64,4.607c13.401,17.166,70.679,76.508,222.131,76.508c4.543,0,8.997-0.064,13.402-0.162
		c4.406,0.098,8.861,0.162,13.403,0.162c151.452,0,208.73-59.342,222.131-76.508c3.124-2.902,4.641-4.607,4.641-4.607h348.044
		l-0.314-199.883l2.586-0.027c35.015-6.275,50.357-10.194,74.356-59.479c29.362-6.355,44.331-21.953,51.238-47.949
		c36.028-6.934,36.028-52.571,36.028-52.571S1635.305,560.454,1602.488,556.41z"/>
	<g>
		<path fill="#6CBD48" d="M478.818,937.427H347.796l77.019-95.8c4.697-5.761,8.146-11.046,10.333-15.716
			c2.268-4.768,3.327-9.218,3.327-13.309c0-6.276-1.816-11.468-5.673-15.4c-3.77-4.016-8.735-5.934-14.896-5.934
			c-7.359,0-12.995,2.419-16.93,7.363c-3.984,4.926-5.896,12.037-5.896,21.42v2.164h-41.254v-1.256
			c0-20.402,5.675-36.475,17.022-48.18c11.371-11.723,26.902-17.578,46.562-17.578c19.249,0,34.551,5.201,45.937,15.611
			c11.436,10.414,17.104,24.307,17.104,41.527c0,8.461-1.804,16.748-5.392,24.694c-3.612,8.029-9.548,16.81-17.817,26.271
			l-30.875,35.801h52.453V937.427z"/>
		<path fill="#6CBD48" d="M628.65,839.77c10.986,2.08,19.554,7.137,25.627,15.227c6.063,8.034,9.091,18.255,9.091,30.732
			c0,16.8-5.665,29.945-17.023,39.391c-11.339,9.501-27.202,14.22-47.507,14.22c-20.261,0-36.04-4.719-47.346-14.22
			c-11.345-9.445-16.989-22.591-16.989-39.391c0-12.478,3.054-22.698,9.127-30.732c6.069-8.09,14.611-13.146,25.622-15.227
			c-8.928-2.31-15.815-6.581-20.668-12.933c-4.83-6.353-7.269-14.211-7.269-23.597c0-15.117,5.064-26.914,15.171-35.351
			c10.128-8.417,24.232-12.662,42.352-12.662c18.174,0,32.351,4.245,42.517,12.721c10.142,8.484,15.228,20.254,15.228,35.292
			c0,9.386-2.41,17.244-7.284,23.597C644.434,833.188,637.553,837.46,628.65,839.77z M598.838,903.769
			c7.221,0,12.955-2.078,17.133-6.295c4.191-4.22,6.301-9.995,6.301-17.36c0-7.194-2.109-12.867-6.301-17.031
			c-4.178-4.15-9.912-6.232-17.133-6.232c-7.168,0-12.84,2.082-16.998,6.232c-4.157,4.164-6.24,9.837-6.24,17.031
			c0,7.295,2.115,13.091,6.287,17.304C586.099,901.69,591.739,903.769,598.838,903.769z M598.838,825.331
			c6.152,0,11.047-1.831,14.671-5.46c3.63-3.656,5.422-8.619,5.422-14.921c0-6.322-1.772-11.237-5.302-14.801
			c-3.553-3.543-8.463-5.334-14.791-5.334c-6.147,0-11.016,1.791-14.547,5.391c-3.572,3.592-5.318,8.515-5.318,14.744
			c0,6.21,1.798,11.157,5.377,14.868C587.905,823.479,592.744,825.331,598.838,825.331z"/>
		<path fill="#6CBD48" d="M772.83,839.77c10.984,2.08,19.553,7.137,25.628,15.227c6.063,8.034,9.092,18.255,9.092,30.732
			c0,16.8-5.667,29.945-17.027,39.391c-11.337,9.501-27.201,14.22-47.504,14.22c-20.262,0-36.039-4.719-47.348-14.22
			c-11.343-9.445-16.989-22.591-16.989-39.391c0-12.478,3.057-22.698,9.128-30.732c6.069-8.09,14.611-13.146,25.622-15.227
			c-8.928-2.31-15.814-6.581-20.668-12.933c-4.832-6.353-7.27-14.211-7.27-23.597c0-15.117,5.064-26.914,15.172-35.351
			c10.129-8.417,24.231-12.662,42.353-12.662c18.172,0,32.349,4.245,42.515,12.721c10.143,8.484,15.229,20.254,15.229,35.292
			c0,9.386-2.409,17.244-7.284,23.597C788.614,833.188,781.731,837.46,772.83,839.77z M743.019,903.769
			c7.22,0,12.956-2.078,17.13-6.295c4.193-4.22,6.303-9.995,6.303-17.36c0-7.194-2.109-12.867-6.303-17.031
			c-4.174-4.15-9.91-6.232-17.13-6.232c-7.169,0-12.84,2.082-17.001,6.232c-4.155,4.164-6.238,9.837-6.238,17.031
			c0,7.295,2.116,13.091,6.285,17.304C730.278,901.69,735.917,903.769,743.019,903.769z M743.019,825.331
			c6.151,0,11.048-1.831,14.668-5.46c3.632-3.656,5.423-8.619,5.423-14.921c0-6.322-1.771-11.237-5.301-14.801
			c-3.553-3.543-8.464-5.334-14.79-5.334c-6.147,0-11.017,1.791-14.548,5.391c-3.573,3.592-5.316,8.515-5.316,14.744
			c0,6.21,1.795,11.157,5.375,14.868C732.087,823.479,736.924,825.331,743.019,825.331z"/>
		<path fill="#6CBD48" d="M917.01,839.77c10.984,2.08,19.555,7.137,25.626,15.227c6.063,8.034,9.094,18.255,9.094,30.732
			c0,16.8-5.666,29.945-17.026,39.391c-11.34,9.501-27.201,14.22-47.505,14.22c-20.262,0-36.04-4.719-47.349-14.22
			c-11.344-9.445-16.989-22.591-16.989-39.391c0-12.478,3.057-22.698,9.13-30.732c6.068-8.09,14.611-13.146,25.621-15.227
			c-8.929-2.31-15.816-6.581-20.668-12.933c-4.832-6.353-7.268-14.211-7.268-23.597c0-15.117,5.063-26.914,15.17-35.351
			c10.127-8.417,24.23-12.662,42.353-12.662c18.173,0,32.349,4.245,42.513,12.721c10.146,8.484,15.231,20.254,15.231,35.292
			c0,9.386-2.412,17.244-7.286,23.597C932.795,833.188,925.912,837.46,917.01,839.77z M887.198,903.769
			c7.219,0,12.955-2.078,17.133-6.295c4.189-4.22,6.3-9.995,6.3-17.36c0-7.194-2.11-12.867-6.3-17.031
			c-4.178-4.15-9.914-6.232-17.133-6.232c-7.169,0-12.84,2.082-17.001,6.232c-4.154,4.164-6.237,9.837-6.237,17.031
			c0,7.295,2.115,13.091,6.285,17.304C874.459,901.69,880.098,903.769,887.198,903.769z M887.198,825.331
			c6.151,0,11.048-1.831,14.669-5.46c3.63-3.656,5.422-8.619,5.422-14.921c0-6.322-1.769-11.237-5.301-14.801
			c-3.554-3.543-8.464-5.334-14.79-5.334c-6.149,0-11.016,1.791-14.548,5.391c-3.574,3.592-5.318,8.515-5.318,14.744
			c0,6.21,1.798,11.157,5.377,14.868C876.266,823.479,881.104,825.331,887.198,825.331z"/>
		<path fill="#6CBD48" d="M1103.596,839.77c10.984,2.08,19.552,7.137,25.626,15.227c6.065,8.034,9.095,18.255,9.095,30.732
			c0,16.8-5.669,29.945-17.029,39.391c-11.337,9.501-27.198,14.22-47.502,14.22c-20.264,0-36.041-4.719-47.347-14.22
			c-11.346-9.445-16.992-22.591-16.992-39.391c0-12.478,3.057-22.698,9.13-30.732c6.069-8.09,14.61-13.146,25.622-15.227
			c-8.932-2.31-15.818-6.581-20.67-12.933c-4.831-6.353-7.268-14.211-7.268-23.597c0-15.117,5.063-26.914,15.17-35.351
			c10.129-8.417,24.231-12.662,42.354-12.662c18.17,0,32.347,4.245,42.511,12.721c10.146,8.484,15.232,20.254,15.232,35.292
			c0,9.386-2.413,17.244-7.285,23.597C1119.38,833.188,1112.498,837.46,1103.596,839.77z M1073.785,903.769
			c7.219,0,12.954-2.078,17.131-6.295c4.189-4.22,6.298-9.995,6.298-17.36c0-7.194-2.108-12.867-6.298-17.031
			c-4.177-4.15-9.912-6.232-17.131-6.232c-7.17,0-12.841,2.082-17.003,6.232c-4.155,4.164-6.235,9.837-6.235,17.031
			c0,7.295,2.111,13.091,6.285,17.304C1061.043,901.69,1066.683,903.769,1073.785,903.769z M1073.785,825.331
			c6.149,0,11.045-1.831,14.668-5.46c3.631-3.656,5.423-8.619,5.423-14.921c0-6.322-1.774-11.237-5.303-14.801
			c-3.553-3.543-8.464-5.334-14.788-5.334c-6.149,0-11.02,1.791-14.549,5.391c-3.574,3.592-5.317,8.515-5.317,14.744
			c0,6.21,1.798,11.157,5.376,14.868C1062.853,823.479,1067.688,825.331,1073.785,825.331z"/>
		<path fill="#6CBD48" d="M1247.775,839.77c10.984,2.08,19.553,7.137,25.625,15.227c6.066,8.034,9.094,18.255,9.094,30.732
			c0,16.8-5.668,29.945-17.025,39.391c-11.338,9.501-27.202,14.22-47.505,14.22c-20.262,0-36.042-4.719-47.348-14.22
			c-11.344-9.445-16.989-22.591-16.989-39.391c0-12.478,3.055-22.698,9.128-30.732c6.069-8.09,14.612-13.146,25.624-15.227
			c-8.93-2.31-15.815-6.581-20.668-12.933c-4.834-6.353-7.27-14.211-7.27-23.597c0-15.117,5.063-26.914,15.171-35.351
			c10.126-8.417,24.229-12.662,42.352-12.662c18.172,0,32.351,4.245,42.514,12.721c10.146,8.484,15.229,20.254,15.229,35.292
			c0,9.386-2.409,17.244-7.284,23.597C1263.559,833.188,1256.678,837.46,1247.775,839.77z M1217.964,903.769
			c7.22,0,12.955-2.078,17.132-6.295c4.189-4.22,6.302-9.995,6.302-17.36c0-7.194-2.112-12.867-6.302-17.031
			c-4.177-4.15-9.912-6.232-17.132-6.232c-7.169,0-12.839,2.082-17.001,6.232c-4.156,4.164-6.235,9.837-6.235,17.031
			c0,7.295,2.112,13.091,6.283,17.304C1205.224,901.69,1210.861,903.769,1217.964,903.769z M1217.964,825.331
			c6.151,0,11.047-1.831,14.669-5.46c3.629-3.656,5.422-8.619,5.422-14.921c0-6.322-1.771-11.237-5.301-14.801
			c-3.554-3.543-8.465-5.334-14.79-5.334c-6.149,0-11.016,1.791-14.549,5.391c-3.573,3.592-5.315,8.515-5.315,14.744
			c0,6.21,1.798,11.157,5.378,14.868C1207.031,823.479,1211.867,825.331,1217.964,825.331z"/>
		<path fill="#6CBD48" d="M1391.955,839.77c10.985,2.08,19.555,7.137,25.628,15.227c6.064,8.034,9.091,18.255,9.091,30.732
			c0,16.8-5.666,29.945-17.024,39.391c-11.338,9.501-27.203,14.22-47.507,14.22c-20.26,0-36.04-4.719-47.346-14.22
			c-11.345-9.445-16.991-22.591-16.991-39.391c0-12.478,3.056-22.698,9.131-30.732c6.067-8.09,14.608-13.146,25.621-15.227
			c-8.929-2.31-15.817-6.581-20.668-12.933c-4.832-6.353-7.269-14.211-7.269-23.597c0-15.117,5.063-26.914,15.171-35.351
			c10.126-8.417,24.229-12.662,42.351-12.662c18.173,0,32.35,4.245,42.514,12.721c10.146,8.484,15.229,20.254,15.229,35.292
			c0,9.386-2.408,17.244-7.281,23.597C1407.74,833.188,1400.857,837.46,1391.955,839.77z M1362.143,903.769
			c7.221,0,12.957-2.078,17.133-6.295c4.191-4.22,6.301-9.995,6.301-17.36c0-7.194-2.109-12.867-6.301-17.031
			c-4.176-4.15-9.912-6.232-17.133-6.232c-7.169,0-12.84,2.082-16.999,6.232c-4.155,4.164-6.236,9.837-6.236,17.031
			c0,7.295,2.113,13.091,6.284,17.304C1349.404,901.69,1355.043,903.769,1362.143,903.769z M1362.143,825.331
			c6.152,0,11.051-1.831,14.669-5.46c3.631-3.656,5.423-8.619,5.423-14.921c0-6.322-1.77-11.237-5.301-14.801
			c-3.555-3.543-8.464-5.334-14.791-5.334c-6.148,0-11.016,1.791-14.547,5.391c-3.574,3.592-5.318,8.515-5.318,14.744
			c0,6.21,1.799,11.157,5.377,14.868C1351.211,823.479,1356.049,825.331,1362.143,825.331z"/>
	</g>
	<path fill="#6CBD48" d="M1477.49,1109.663c0,0-295.092-22.885-590.58-22.885s-589.42,22.885-589.42,22.885V953.165
		c0,0,296.935,21.998,584.169,21.998s595.831-21.998,595.831-21.998V1109.663z"/>
	
		<text transform="matrix(1.2348 0 0 1 352.9824 1070.9609)" fill="#125B2F" font-family="'MyriadPro-Regular'" font-size="107.7215">www.2888888.com</text>
</g>
</svg>
